<svg width="1120" height="1120" viewBox="0 0 1120 1120" fill="none" xmlns="http://www.w3.org/2000/svg">
<g clip-path="url(#clip0_4440_13156)">
<g clip-path="url(#clip1_4440_13156)">
<ellipse cx="1352.86" cy="777.104" rx="1352.86" ry="777.104" transform="matrix(0.953079 -0.302721 0.302796 0.953055 -709.688 450.08)" fill="#21A0A0"/>
<ellipse cx="284.29" cy="167.897" rx="284.29" ry="167.897" transform="matrix(0.9369 -0.349598 0.349669 0.936873 757 979.774)" fill="white"/>
<path d="M1012 580.091C1227.06 508.018 1437.01 493.816 1601.86 527.401C1767.78 561.203 1880.59 641.248 1917.43 751.14C1954.26 861.032 1912.49 992.882 1800.46 1119.83C1689.15 1245.97 1513.05 1361.15 1298 1433.22C1082.94 1505.3 872.994 1519.5 708.138 1485.92C542.22 1452.11 429.414 1372.07 392.574 1262.18C355.735 1152.28 397.508 1020.43 509.537 893.482C620.849 767.342 796.946 652.165 1012 580.091Z" stroke="white" stroke-width="72"/>
<path d="M682.573 311.451C1012.51 151.625 1347.53 85.9224 1621.52 107.279C1896.52 128.713 2102.66 236.65 2189.54 415.956C2276.42 595.262 2233.38 823.904 2079.76 1052.97C1926.7 1281.2 1667.49 1503.35 1337.55 1663.18C1007.62 1823 672.597 1888.71 398.603 1867.35C123.602 1845.92 -82.531 1737.98 -169.414 1558.67C-256.296 1379.37 -213.252 1150.73 -59.6313 921.659C93.4272 693.431 352.639 471.277 682.573 311.451Z" stroke="white" stroke-width="72"/>
</g>
<rect width="537.815" height="493.263" transform="translate(293.973 373.018)" fill="#FE5F55"/>
<rect width="175" height="89" transform="translate(659 361.118) rotate(-24.6969)" fill="#FE5F55"/>
<mask id="mask0_4440_13156" style="mask-type:alpha" maskUnits="userSpaceOnUse" x="85" y="76" width="925" height="925">
<rect x="85" y="76" width="925" height="925" fill="white"/>
</mask>
<g mask="url(#mask0_4440_13156)">
<path d="M345.156 923.917C316.249 923.917 291.358 914.121 270.481 894.529C249.604 874.937 239.166 850.688 239.166 821.781V284.125C239.166 259.715 246.714 237.875 261.809 218.604C276.905 199.333 296.657 187.129 321.067 181.99L701.666 106.833V723.5L336.484 796.729C330.702 798.014 325.885 801.065 322.031 805.883C318.176 810.701 316.249 816 316.249 821.781C316.249 828.847 319.14 834.789 324.921 839.607C330.702 844.425 337.447 846.833 345.156 846.833H778.749V230.167H855.833V923.917H345.156ZM431.874 699.412L624.583 661.833V201.26L431.874 238.839V699.412ZM354.791 714.828V254.255L340.338 257.146C333.272 258.431 327.491 261.482 322.994 266.3C318.498 271.117 316.249 277.059 316.249 284.125V724.464C319.461 723.179 322.834 722.055 326.367 721.091C329.9 720.128 333.272 719.325 336.484 718.682L354.791 714.828Z" fill="white"/>
</g>
<rect width="334.282" height="532.333" transform="translate(294.498 198.494)" fill="white"/>
</g>
<defs>
<clipPath id="clip0_4440_13156">
<rect x="48" y="48" width="1024" height="1024" rx="48" fill="white"/>
</clipPath>
<clipPath id="clip1_4440_13156">
<rect width="2720" height="2300" fill="white" transform="translate(-545 -369)"/>
</clipPath>
</defs>
</svg>
