<svg width="1273" height="1273" viewBox="0 0 1273 1273" fill="none" xmlns="http://www.w3.org/2000/svg">
<g clip-path="url(#clip0_4448_13230)">
<rect x="124.271" y="124.272" width="1024" height="1024" rx="223.69" fill="white"/>
<g clip-path="url(#clip1_4448_13230)">
<ellipse cx="1352.86" cy="777.104" rx="1352.86" ry="777.104" transform="matrix(0.953079 -0.302721 0.302796 0.953055 -633.416 526.351)" fill="#21A0A0"/>
<ellipse cx="284.29" cy="167.897" rx="284.29" ry="167.897" transform="matrix(0.9369 -0.349598 0.349669 0.936873 833.271 1056.05)" fill="white"/>
<path d="M1088.27 656.363C1303.33 584.29 1513.28 570.088 1678.13 603.673C1844.05 637.475 1956.86 717.52 1993.7 827.412C2030.54 937.304 1988.76 1069.15 1876.73 1196.11C1765.42 1322.25 1589.32 1437.42 1374.27 1509.5C1159.21 1581.57 949.266 1595.77 784.41 1562.19C618.491 1528.39 505.685 1448.34 468.846 1338.45C432.007 1228.56 473.779 1096.71 585.808 969.754C697.12 843.614 873.218 728.437 1088.27 656.363Z" stroke="white" stroke-width="72"/>
<path d="M758.844 387.723C1088.78 227.897 1423.8 162.194 1697.79 183.55C1972.79 204.985 2178.93 312.922 2265.81 492.228C2352.69 671.534 2309.65 900.176 2156.03 1129.24C2002.97 1357.47 1743.76 1579.62 1413.82 1739.45C1083.89 1899.28 748.869 1964.98 474.874 1943.62C199.874 1922.19 -6.2595 1814.25 -93.1423 1634.95C-180.025 1455.64 -136.981 1227 16.6402 997.931C169.699 769.703 428.91 547.549 758.844 387.723Z" stroke="white" stroke-width="72"/>
</g>
<rect width="537.815" height="493.263" transform="translate(370.244 449.29)" fill="#FE5F55"/>
<rect width="175" height="89" transform="translate(735.271 437.39) rotate(-24.6969)" fill="#FE5F55"/>
<mask id="mask0_4448_13230" style="mask-type:alpha" maskUnits="userSpaceOnUse" x="161" y="152" width="926" height="926">
<rect x="161.271" y="152.272" width="925" height="925" fill="white"/>
</mask>
<g mask="url(#mask0_4448_13230)">
<path d="M421.427 1000.19C392.521 1000.19 367.629 990.393 346.753 970.801C325.876 951.209 315.438 926.959 315.438 898.053V360.397C315.438 335.987 322.985 314.147 338.081 294.876C353.176 275.605 372.929 263.4 397.339 258.261L777.938 183.105V799.772L412.755 873.001C406.974 874.286 402.156 877.337 398.302 882.155C394.448 886.972 392.521 892.272 392.521 898.053C392.521 905.119 395.411 911.061 401.193 915.879C406.974 920.696 413.719 923.105 421.427 923.105H855.021V306.439H932.104V1000.19H421.427ZM508.146 775.683L700.854 738.105V277.532L508.146 315.11V775.683ZM431.062 791.1V330.527L416.609 333.418C409.543 334.702 403.762 337.754 399.266 342.571C394.769 347.389 392.521 353.331 392.521 360.397V800.735C395.733 799.451 399.105 798.327 402.638 797.363C406.171 796.4 409.543 795.597 412.755 794.954L431.062 791.1Z" fill="white"/>
</g>
<rect width="334.282" height="532.333" transform="translate(370.77 274.766)" fill="white"/>
</g>
<defs>
<clipPath id="clip0_4448_13230">
<rect x="124.271" y="124.272" width="1024" height="1024" rx="223.69" fill="white"/>
</clipPath>
<clipPath id="clip1_4448_13230">
<rect width="2720" height="2300" fill="white" transform="translate(-468.729 -292.728)"/>
</clipPath>
</defs>
</svg>
